<svg xmlns="http://www.w3.org/2000/svg" width="366" height="483" viewBox="0 0 366 483"><defs><clipPath id="hxata"><path fill="#fff" d="M27.812.557h310.063c15.032 0 27.343 12.277 27.343 27.262v427.38c0 14.985-11.884 26.999-26.916 26.999H28.24c-15.032 0-27.754-12.014-27.754-26.999V27.82C.486 12.834 12.78.557 27.812.557z"/></clipPath></defs><g><g><path fill="#d8d8d8" d="M27.812.557h310.063c15.032 0 27.343 12.277 27.343 27.262v427.38c0 14.985-11.884 26.999-26.916 26.999H28.24c-15.032 0-27.754-12.014-27.754-26.999V27.82C.486 12.834 12.78.557 27.812.557z"/><path fill="none" stroke="#c8c7c7" stroke-linecap="round" stroke-linejoin="round" stroke-miterlimit="20" stroke-width="2" d="M27.812.557h310.063c15.032 0 27.343 12.277 27.343 27.262v427.38c0 14.985-11.884 26.999-26.916 26.999H28.24c-15.032 0-27.754-12.014-27.754-26.999V27.82C.486 12.834 12.78.557 27.812.557z" clip-path="url(&quot;#hxata&quot;)"/></g></g></svg>